<?xml version="1.0" encoding="utf-8"?>
<!-- Generator: Adobe Illustrator 12.0.0, SVG Export Plug-In . SVG Version: 6.00 Build 51448)  -->
<!DOCTYPE svg PUBLIC "-//W3C//DTD SVG 1.1//EN" "http://www.w3.org/Graphics/SVG/1.1/DTD/svg11.dtd" [
	<!ENTITY ns_svg "http://www.w3.org/2000/svg">
	<!ENTITY ns_xlink "http://www.w3.org/1999/xlink">
]>
<svg  version="1.1" id="root" xmlns="&ns_svg;" xmlns:xlink="&ns_xlink;" width="591.128" height="583.853"
	 viewBox="0 0 591.128 583.853" overflow="visible" enable-background="new 0 0 591.128 583.853" xml:space="preserve">
<path d="M65.425,183.616c3.157-35.402,43.071-91.014,66.991-35.573c10.204-11.643,21.402-22.235,33.431-31.569
	c-5.525,38.594-14.172,56.821-22.122,74.629c-2.998-18.718-6.879-32.793-11.309-43.06c-15.413,17.586-28.551,37.57-38.855,59.222
	h106.74c2.294-16.132,5.202-33.284,8.624-46.734c4.739-18.63,10.335-48.248,12-75.331c31.462-12.079,65.929-16.355,101.552-10.457
	c11.951,3.202,20.433,7.799,20.433,7.799l18.873-2.34h7.955l9.515,5.615c0,0,87.209,13.159,138.765,121.448h59.242
	C539.036,87.078,426.538,0,293.689,0C162.27,0,50.778,85.219,11.393,203.403c4.171-1.472,9.131-3.652,14.813-6.891
	C45.655,180.808,40.273,196.133,65.425,183.616z M170.242,69.44c5.147-67.148,38.137-47.027,41.88-41.646
	c8.584,10.266,10.317,32.789,8.803,57.406c-19.69,7.56-38.2,18.178-55.077,31.274C167.72,103.394,169.235,87.979,170.242,69.44z"/>
<path d="M245.598,553.684c-6.638-4.203-18.269-17.559-18.269-17.559s0.624,3.043,0,4.875c-3.665-0.975-7.721-6.785-7.721-6.785
	s1.638,18.523-0.585,22.109c-1.91-12.088-6.317-29.947-6.317-29.947s-3.47,8.5-6.083,8.773c1.755-7.838,1.599-18.131,1.287-20.238
	c-0.312-2.105-5.225-10.605-6.083-13.686c-1.482-0.508-8.774-9.242-8.774-9.242s8.306,14.74,6.785,30.766
	c-2.144-5.498-4.211-10.295-4.211-10.295s-1.053,26.869-4.914,31.119c-3.704-19.77-8.773-41.686-9.709-51.355
	c-4.212-5.615-12.166-23.865-12.166-23.865s3.665,36.732,3.392,46.326c-4.341-13.537-14.285-32.168-19.904-52.033
	c-0.625-0.379-1.533-1.412-2.66-2.967c-5.813,53.91-11.015,47.123-15.923,59.094c10.45-25.697,4.289-56.035-3.861-86.334
	c-2.768,14.467-4.25,14.467-6.668,18.951c3.917-15.59-1.157-36.434-5.16-49.051c-2.806-5.518-4.589-9.09-4.589-9.09
	s2.672,19.361,3.432,36.5c-8.423-12.459-13.301-33.951-13.301-33.951s0.257,11.666,3.368,24.328
	c-3.024-2.632-8.031-18.923-11.753-32.347h-9.2c0.164,9.101,2.083,22.508,7.801,42.124c-6.698-13.923-11.985-28.006-15.983-42.124
	h-6.265L29.65,434.352c37.667,72.327,104.158,127.237,184.252,149.501C234.77,577.329,241.14,570.522,245.598,553.684z"/>
<path d="M444.918,480.131c-0.166-0.242-0.322-0.602-0.467-1.057l-5.615,12.441l4.941-15.658c-0.238-1.623-0.438-3.605-0.604-5.846
	c-0.043-0.576-0.084-1.174-0.123-1.781c-0.012-0.201-0.023-0.406-0.035-0.609c-0.027-0.422-0.051-0.848-0.074-1.281
	c-0.014-0.236-0.025-0.477-0.037-0.717c-0.021-0.414-0.043-0.834-0.061-1.26c-0.012-0.254-0.025-0.51-0.035-0.768
	c-0.02-0.438-0.037-0.879-0.055-1.324c-0.008-0.244-0.02-0.486-0.027-0.732c-0.02-0.543-0.039-1.094-0.057-1.648
	c-0.004-0.154-0.01-0.303-0.016-0.459c-0.021-0.686-0.041-1.379-0.059-2.078c-0.008-0.299-0.014-0.602-0.023-0.902
	c-0.01-0.418-0.02-0.836-0.027-1.256c-0.008-0.35-0.016-0.703-0.023-1.055c-0.006-0.367-0.014-0.734-0.02-1.105
	c-0.006-0.379-0.014-0.758-0.02-1.139c-0.006-0.34-0.01-0.68-0.016-1.021c-0.004-0.402-0.01-0.805-0.016-1.209
	c-0.004-0.27-0.006-0.541-0.01-0.813c-0.018-1.67-0.031-3.334-0.039-4.973c0-0.135-0.002-0.27-0.002-0.404
	c-0.002-0.545-0.004-1.086-0.006-1.625c0-0.135,0-0.27,0-0.404c-0.002-0.545-0.002-1.086-0.002-1.621c0-0.082,0-0.164,0-0.244
	c0-0.881,0.002-1.748,0.004-2.6c0-0.09,0-0.18,0-0.27c0.002-0.879,0.006-1.74,0.01-2.578c0-0.02,0-0.037,0.002-0.055
	c0-0.01,0-0.02,0-0.029c0.004-0.855,0.01-1.68,0.016-2.482c0-0.049,0.002-0.1,0.002-0.148c0-0.014,0-0.027,0-0.039
	c0.006-0.809,0.014-1.59,0.02-2.332c-2.615,5.555-6.605,8.459-6.594,7.545c3.861-8.072,5.674-17.49,5.674-17.49
	s-0.41-3.627-1.287-5.031c-3.96-5.633,1.494-18.128,2.769-26.292h-0.945c-7.628,8.041-12.644,14.069-12.644,14.069
	c2.502-5.783,4.263-10.424,5.503-14.069H169.708c0.011,0.083,0.021,0.164,0.032,0.247c0.018,0.145,0.037,0.285,0.055,0.43
	c0.072,0.561,0.143,1.125,0.214,1.693c0.014,0.113,0.028,0.227,0.042,0.342c0.058,0.465,0.115,0.932,0.172,1.398
	c0.021,0.168,0.041,0.334,0.061,0.5c0.061,0.506,0.122,1.016,0.181,1.521c0.009,0.076,0.018,0.15,0.027,0.227
	c0.069,0.586,0.136,1.174,0.203,1.758c0.014,0.123,0.027,0.246,0.041,0.369c0.054,0.48,0.107,0.961,0.159,1.439
	c0.015,0.135,0.03,0.27,0.044,0.406c0.125,1.16,0.244,2.311,0.355,3.441c0.014,0.15,0.028,0.297,0.042,0.445
	c0.044,0.453,0.086,0.902,0.127,1.348c0.011,0.119,0.022,0.238,0.032,0.355c0.05,0.555,0.098,1.104,0.143,1.645
	c0.007,0.08,0.013,0.158,0.019,0.238c0.038,0.455,0.073,0.904,0.107,1.348c0.011,0.146,0.022,0.293,0.032,0.438
	c0.032,0.438,0.062,0.869,0.09,1.293c0.005,0.08,0.011,0.162,0.016,0.242c0.032,0.498,0.061,0.982,0.086,1.461
	c0.007,0.113,0.012,0.227,0.018,0.342c0.019,0.369,0.035,0.73,0.05,1.084c0.006,0.129,0.011,0.258,0.016,0.383
	c0.017,0.449,0.032,0.891,0.042,1.314c-0.286-0.59-0.567-1.209-0.844-1.844c-0.078-0.178-0.155-0.357-0.232-0.539
	c-0.221-0.52-0.44-1.051-0.657-1.594c-0.056-0.143-0.114-0.283-0.171-0.426c-0.262-0.674-0.521-1.363-0.775-2.066
	c-0.064-0.176-0.127-0.357-0.19-0.535c-0.199-0.561-0.396-1.129-0.59-1.705c-0.07-0.209-0.141-0.418-0.21-0.627
	c-0.242-0.732-0.48-1.471-0.713-2.221c-0.028-0.092-0.056-0.186-0.084-0.279c-0.209-0.676-0.413-1.357-0.614-2.043
	c-0.068-0.234-0.136-0.469-0.203-0.703c-0.182-0.629-0.36-1.26-0.535-1.895c-0.043-0.156-0.087-0.311-0.13-0.467
	c-0.211-0.775-0.417-1.549-0.619-2.324c-0.053-0.205-0.105-0.412-0.158-0.617c-0.158-0.611-0.312-1.223-0.463-1.832
	c-0.052-0.209-0.105-0.418-0.156-0.627c-0.189-0.771-0.375-1.541-0.554-2.301c-0.022-0.094-0.042-0.184-0.064-0.277
	c-0.062-0.265-0.12-0.523-0.181-0.786h-10.036c0.126,0.308,0.253,0.617,0.382,0.929c0.124,0.303,0.246,0.602,0.374,0.912
	c0.002,0.004,0.003,0.008,0.005,0.012c0.212,0.512,0.431,1.037,0.652,1.564c0.067,0.158,0.13,0.313,0.197,0.473
	c0.001,0,0.001,0.002,0.002,0.004c0.175,0.418,0.359,0.848,0.541,1.275c0.158,0.373,0.314,0.744,0.477,1.123c0,0,0,0,0.001,0.002
	c0.065,0.154,0.135,0.313,0.201,0.467c0.239,0.557,0.478,1.113,0.727,1.684c0.001,0.004,0.002,0.006,0.003,0.008
	c0.286,0.658,0.579,1.324,0.877,1.996v0.002c0.071,0.16,0.141,0.32,0.213,0.48c0,0.002,0,0.002,0.001,0.002
	c0.305,0.689,0.617,1.385,0.934,2.09h0.001c0.065,0.145,0.132,0.291,0.198,0.436c0.001,0.004,0.002,0.006,0.003,0.01
	c0.291,0.641,0.586,1.287,0.885,1.938l0.001,0.002c0.47,1.021,0.951,2.053,1.443,3.096c0.001,0,0.001,0.004,0.002,0.004
	c0.239,0.506,0.483,1.016,0.726,1.523c0.158,0.332,0.315,0.66,0.475,0.992c0.326,0.676,0.657,1.354,0.992,2.035
	c0.001,0.002,0.002,0.004,0.003,0.006c0.264,0.539,0.534,1.078,0.804,1.619c0.189,0.379,0.376,0.758,0.567,1.137l0.001,0.002
	c0.088,0.176,0.178,0.352,0.267,0.525c0,0.002,0.001,0.004,0.002,0.006c0.166,0.328,0.336,0.656,0.503,0.982
	c0.403,0.787,0.81,1.574,1.222,2.361c0.229,0.436,0.456,0.871,0.687,1.307c0,0,0.001,0,0.001,0.002
	c0.782,1.473,1.584,2.943,2.4,4.408c0.152,0.273,0.303,0.547,0.456,0.82c0.001,0,0.001,0.002,0.002,0.002
	c0.338,0.602,0.681,1.199,1.024,1.795c0.178,0.311,0.353,0.621,0.532,0.928c0.001,0.002,0.001,0.002,0.002,0.004
	c0.101,0.176,0.204,0.348,0.306,0.523c0,0,0.001,0,0.001,0.002c0.175,0.299,0.353,0.594,0.53,0.893
	c0.281,0.477,0.561,0.953,0.846,1.426v0.002c0.446,0.736,0.896,1.469,1.349,2.195c0,0,0,0,0.001,0.002
	c0.283,0.453,0.569,0.902,0.855,1.352c0.281,0.445,0.561,0.891,0.846,1.328c0,0.002,0,0.002,0,0.002
	c0.585,0.902,1.177,1.793,1.773,2.674h0.001c0.175,0.258,0.354,0.51,0.53,0.768c1.762,2.563,3.57,5.008,5.416,7.299
	c0.206,0.258,0.41,0.52,0.616,0.77l0.001,0.002c0.078,0.094,0.156,0.186,0.234,0.279c0,0.002,0,0.002,0,0.002
	c0.464,0.559,0.93,1.107,1.398,1.645c0.088,0.102,0.175,0.203,0.262,0.303c0,0,0.001,0,0.001,0.002
	c0.288,0.328,0.58,0.643,0.87,0.963c0.856,0.943,1.717,1.861,2.586,2.727c-0.545,0.74-14.588-12.791-14.588-12.791
	s4.216,10.762,9.519,17.002c-6.352-2.777-17.81-19.213-27.017-33.766l13.057,24.719c0,0,15.208,51.004,68.318,76.273
	c3.534,1.76,6.981,3.422,10.351,5.004c0.067,0.031,0.133,0.061,0.199,0.092c1.104,0.518,2.2,1.027,3.286,1.525
	c0.748,0.344,1.485,0.678,2.225,1.012c0.623,0.283,1.245,0.564,1.862,0.84c0.693,0.311,1.384,0.619,2.07,0.922
	c0.748,0.33,1.485,0.652,2.223,0.973c0.598,0.262,1.197,0.523,1.789,0.777c1.162,0.5,2.311,0.986,3.449,1.465
	c0.463,0.193,0.918,0.381,1.377,0.572c0.883,0.367,1.758,0.727,2.627,1.08c0.408,0.166,0.818,0.334,1.225,0.498
	c1.24,0.5,2.473,0.992,3.684,1.467c29.334,11.486,50.029,15.436,60.707,16.197c2.816,0.199,4.946,0.184,6.342,0.02
	c7.267-0.852,33.015-1.729,92.723-77.289c-9.203,48.372-12.384,70.939-7.158,83.597c8.604-4.412,16.963-9.231,25.056-14.432
	C454.891,505.796,449.402,495.612,444.918,480.131z"/>
<path d="M531.3,387.78c-0.076,3.039-0.218,5.786-0.438,8.122c-0.543-2.995-1.023-5.688-1.451-8.122h-5.84
	c-1.342,9.205-2.934,18.391-4.094,19.663c1.001-5.56,1.727-13.046,2.225-19.663h-2.561c-1.393,6.447-2.869,13.714-3.721,19.196
	c0.873-6.754,1.205-14.208,1.33-19.196h-1.919c-20.16,57.899-10.701,18.79-24.991,66.536c5.381-29.246,7.02-42.816,7.02-42.816
	s-6.707,13.645-21.723,43.217c1.604,38.494,3.512,69.894,3.85,75.354c29.298-23.317,54.105-52.034,72.897-84.659
	c0.146-0.255,0.288-0.511,0.434-0.766c0.86-1.504,1.703-3.02,2.538-4.541c0.487-0.889,0.971-1.78,1.448-2.675
	c0.411-0.769,0.815-1.541,1.221-2.313c7.874-15.068,14.504-30.89,19.734-47.336H531.3z"/>
<g>
	<path d="M4.464,249.778l17.87,39.933l11.725-30.59l-14.175-28.773H3.781C2.306,236.743,1.056,243.225,0,249.77
		C2.168,249.766,4.452,249.765,4.464,249.778z"/>
	<path d="M143.176,262.359h-40.223c-7.387,0.024-11.092,4.103-11.113,12.236v18.78h20.488V279.2h21.613v22.875v15.298v26.732
		l-21.613,0.773v-27.506h12.619v-15.298h-23.18c-7.346,0.023-11.029,4.103-11.051,12.236v35.874
		c0.021,8.136,3.574,12.21,10.656,12.235c3.678,0,9.055-0.483,16.133-1.459c5.412-0.774,10.824-1.552,16.236-2.331v3.369h21.67
		v-87.404C155.389,266.461,151.311,262.383,143.176,262.359z"/>
	<polygon points="205.877,230.348 56.653,230.348 38.345,274.691 26.62,305.279 26.62,361.999 49.775,361.999 49.775,305.279 
		59.942,273.025 71.305,249.778 205.877,249.778 	"/>
	<path d="M215.203,342.388c-8.445,0.82-13.227,1.227-14.348,1.227c-4.75,0-7.123-2.431-7.123-7.3v-47.652
		c0-4.998,2.506-7.498,7.518-7.498h4.627V262.33c0,0-4.27-0.391-6.701-0.391c-7.844,0-14.973,0.715-19.193,2.145
		c-5.805,1.903-8.705,5.267-8.705,10.091v69.862c0,5.715,1.086,10.231,3.258,13.549c2.17,3.318,5.164,4.977,8.977,4.977
		c2.275,0,12.838-1.393,31.691-4.177v3.614h22.455V249.144h349.618c-1.035-6.333-2.248-12.604-3.678-18.796H215.203V342.388z"/>
	<path d="M306.228,262.359h-39.942c-8.135,0.024-12.213,4.103-12.236,12.236v75.169c0.023,8.136,4.102,12.213,12.236,12.235h39.942
		c8.133-0.022,12.213-4.1,12.236-12.235V328.88h-21.611v16.56h-21.19v-66.521h21.19v23.887h-12.743v14.708h28.14l6.215-6.22v-36.699
		C318.44,266.461,314.36,262.383,306.228,262.359z"/>
	<polygon points="361.728,283.774 354.229,262.359 330.935,262.359 349.394,303.226 	"/>
	<polygon points="399.28,262.754 399.28,262.359 376.546,262.359 365.104,291.253 352.772,310.705 328.688,361.604 328.688,361.999 
		352.827,361.999 365.104,330.736 377.442,310.495 	"/>
	<polygon points="368.433,337.849 377.106,361.999 401.524,361.999 380.767,317.606 	"/>
	<path d="M451.925,259.512h-31.643c-6.721,0.021-10.582,3.884-10.6,10.601v26.092h20.002c0,0,0-14.654,0-18.597
		c3.229,0,9.521,0,12.748,0c0,3.75,0,13.862,0,14.978c-0.689,1.213-33.75,59.448-33.75,59.448v12.663h53.75v-18.46
		c0,0-21.869,0-28.545,0c3.863-6.768,25.037-43.867,25.037-43.867c2.389-4.228,3.598-8.194,3.598-11.798v-20.453
		C462.503,263.396,458.64,259.533,451.925,259.512z"/>
	<path d="M580.614,295.255c0,0-18.143,0-22.584,0c0.15-3.747,0.551-13.787,0.691-17.284c3.975,0,27.604,0,31.836,0
		c-0.402-6.205-0.973-12.363-1.75-18.458h-49.172l-1.713,53.929c0,0,28.646,0,33.199,0c0,4.313,0,28.755,0,33.068
		c-3.256,0-9.764,0-13.02,0c0-3.994,0-19.322,0-19.322h-20.092v26.902c0.016,6.726,3.879,10.591,10.598,10.607h31.998
		c1.102-0.003,2.119-0.118,3.064-0.323c4.443-19.365,6.994-39.452,7.457-60.055C590.552,298.556,586.798,295.273,580.614,295.255z"
		/>
	<g>
		<path d="M506.819,317.304l19.896,38.484c0.061-0.544,0.102-1.102,0.104-1.69v-83.979c-0.02-6.723-3.883-10.586-10.598-10.607
			h-32.994c-2.205,0.006-4.104,0.418-5.671,1.191l14.972,28.959c0-6.225,0-10.768,0-11.963c3.379,0,10.912,0,14.291,0"/>
		<path d="M472.543,268.423c-0.061,0.543-0.104,1.102-0.104,1.69v83.977c0.016,6.726,3.881,10.591,10.598,10.607h33.176
			c2.137-0.005,3.981-0.402,5.509-1.152l-14.901-28.823c0,6.134,0,10.604,0,11.788c-3.379,0-10.912,0-14.291,0
			c0-2.663,0-21.918,0-39.431"/>
	</g>
</g>
</svg>

